<svg width="32" height="32" viewBox="0 0 32 32" fill="none" xmlns="http://www.w3.org/2000/svg">
  <path d="M16 4C12 4 8 6 8 10C8 12 9 14 11 15C10 16 9 17 9 19C9 22 11 24 14 24C15 24 16 23 17 22C18 23 19 24 20 24C23 24 25 22 25 19C25 17 24 16 23 15C25 14 26 12 26 10C26 6 22 4 18 4C17 4 16 4 16 4Z" fill="#4a6fa5"/>
  <path d="M13 12C13 13.1 13.9 14 15 14C16.1 14 17 13.1 17 12C17 10.9 16.1 10 15 10C13.9 10 13 10.9 13 12Z" fill="white"/>
  <path d="M19 12C19 13.1 19.9 14 21 14C22.1 14 23 13.1 23 12C23 10.9 22.1 10 21 10C19.9 10 19 10.9 19 12Z" fill="white"/>
</svg>
